HIERARCHY
ROOT reference
{
  OFFSET 0 0 0
  CHANNELS 6 Xposition Yposition Zposition Zrotation Xrotation Yrotation
  JOINT Hips
  {
    OFFSET -4.64037 87.7643 21.1373
    CHANNELS 6 Xposition Yposition Zposition Zrotation Xrotation Yrotation
    JOINT Spine
    {
      OFFSET 0 7.86299 0
      CHANNELS 6 Xposition Yposition Zposition Zrotation Xrotation Yrotation
      JOINT Spine1
      {
        OFFSET 0 22.6654 0
        CHANNELS 6 Xposition Yposition Zposition Zrotation Xrotation Yrotation
        JOINT Neck
        {
          OFFSET 0 22.5723 2.05203
          CHANNELS 6 Xposition Yposition Zposition Zrotation Xrotation Yrotation
          JOINT Head
          {
            OFFSET 0 13.4246 -1.9178
            CHANNELS 6 Xposition Yposition Zposition Zrotation Xrotation Yrotation
            End Site
            {
              OFFSET 0 23.9725 0
            }
          }
        }
        JOINT LeftShoulder
        {
          OFFSET 3.7941 20.1358 -0.319195
          CHANNELS 6 Xposition Yposition Zposition Zrotation Xrotation Yrotation
          JOINT LeftArm
          {
            OFFSET 12.7665 0 0
            CHANNELS 6 Xposition Yposition Zposition Zrotation Xrotation Yrotation
            JOINT LeftForeArm
            {
              OFFSET 28.396 0 0
              CHANNELS 6 Xposition Yposition Zposition Zrotation Xrotation Yrotation
              JOINT LeftHand
              {
                OFFSET 28.7929 0 0
                CHANNELS 6 Xposition Yposition Zposition Zrotation Xrotation Yrotation
                End Site
                {
                  OFFSET 14.3835 0 0
                }
              }
            }
          }
        }
        JOINT RightShoulder
        {
          OFFSET -3.85764 20.1358 -0.319195
          CHANNELS 6 Xposition Yposition Zposition Zrotation Xrotation Yrotation
          JOINT RightArm
          {
            OFFSET -12.7665 0 0
            CHANNELS 6 Xposition Yposition Zposition Zrotation Xrotation Yrotation
            JOINT RightForeArm
            {
              OFFSET -28.396 0 0
              CHANNELS 6 Xposition Yposition Zposition Zrotation Xrotation Yrotation
              JOINT RightHand
              {
                OFFSET -28.7929 0 0
                CHANNELS 6 Xposition Yposition Zposition Zrotation Xrotation Yrotation
                End Site
                {
                  OFFSET -14.3835 0 0
                }
              }
            }
          }
        }
      }
    }
    JOINT LeftUpLeg
    {
      OFFSET 9.58901 0 0
      CHANNELS 6 Xposition Yposition Zposition Zrotation Xrotation Yrotation
      JOINT LeftLeg
      {
        OFFSET 0 -41.7092 0
        CHANNELS 6 Xposition Yposition Zposition Zrotation Xrotation Yrotation
        JOINT LeftFoot
        {
          OFFSET 0 -41.5308 0
          CHANNELS 6 Xposition Yposition Zposition Zrotation Xrotation Yrotation
          JOINT LeftToeBase
          {
            OFFSET 0 -6.23286 14.3835
            CHANNELS 6 Xposition Yposition Zposition Zrotation Xrotation Yrotation
            End Site
            {
              OFFSET 0 0 3.8356
            }
          }
        }
      }
    }
    JOINT RightUpLeg
    {
      OFFSET -9.58901 0 0
      CHANNELS 6 Xposition Yposition Zposition Zrotation Xrotation Yrotation
      JOINT RightLeg
      {
        OFFSET 0 -41.7092 0
        CHANNELS 6 Xposition Yposition Zposition Zrotation Xrotation Yrotation
        JOINT RightFoot
        {
          OFFSET 0 -41.5308 0
          CHANNELS 6 Xposition Yposition Zposition Zrotation Xrotation Yrotation
          JOINT RightToeBase
          {
            OFFSET 0 -6.23286 14.3835
            CHANNELS 6 Xposition Yposition Zposition Zrotation Xrotation Yrotation
            End Site
            {
              OFFSET 0 0 3.8356
            }
          }
        }
      }
    }
  }
}
MOTION
Frames:	4
Frame Time:	0.004
0 0 0 0 0 -0 -15.8521 85.0564 -202.15 -0.779573 -2.02095 -0.561885 0 7.86299 0 2.28368 -5.90199 0.754718 1.77636e-015 22.6654 -2.84217e-014 -0.309438 -0.373644 0.635981 0 22.5723 2.05203 0.263204 22.5692 -0.819798 -1.77636e-015 13.4246 -1.9178 2.12932 7.33236 -0.668298 3.7941 20.1358 -0.319195 6.05298 4.72739 2.71244 12.7665 -2.84217e-014 0 -12.6372 3.64115 -9.50291 28.396 2.84217e-014 0 0.337214 4.11645 -0.703214 28.7929 -1.42109e-014 -5.68434e-014 10.3885 3.6963 -4.65291 -3.85764 20.1358 -0.319195 -5.69471 12.0326 8.4277 -12.7665 1.42109e-014 0 12.187 5.96241 -0.592487 -28.396 2.84217e-014 2.84217e-014 0.175338 1.42466 2.38913 -28.7929 -2.84217e-014 -2.84217e-014 -7.99664 2.13805 -10.206 9.58901 0 0 5.56135 5.05805 -5.74067 7.10543e-015 -41.7092 0 -2.71106 -1.86142 -4.47118 7.10543e-015 -41.5308 0 1.96813 -9.01671 21.1426 0 -6.23286 14.3835 3.97569e-016 3.18055e-015 -1.59028e-015 -9.58901 1.42109e-014 0 -4.04796 1.59758 6.54378 7.10543e-015 -41.7092 0 2.59634 3.40571 -5.133 0 -41.5308 0 3.31019 -9.13076 -8.05207 0 -6.23286 14.3835 -9.93923e-017 0 3.18055e-015 
0 0 0 0 0 -0 -15.8521 85.0564 -202.15 -0.779294 -2.02096 -0.553964 3.55271e-015 7.86299 0 2.28536 -5.8992 0.751747 1.77636e-015 22.6654 0 -0.308291 -0.374349 0.632969 -1.77636e-015 22.5723 2.05203 0.262659 22.5865 -0.823933 -3.55271e-015 13.4246 -1.9178 2.13282 7.3504 -0.672708 3.7941 20.1358 -0.319195 6.05624 4.72844 2.70757 12.7665 0 -2.84217e-014 -12.6494 3.61806 -9.51451 28.396 0 2.84217e-014 0.381354 4.25971 -0.635046 28.7929 1.42109e-014 2.84217e-014 10.1263 3.84418 -4.72305 -3.85764 20.1358 -0.319195 -5.68939 12.0347 8.42832 -12.7665 1.42109e-014 2.84217e-014 12.189 5.95084 -0.596214 -28.396 2.84217e-014 0 0.190234 1.42467 2.38181 -28.7929 -2.84217e-014 0 -8.00818 2.1379 -10.2287 9.58901 1.42109e-014 2.84217e-014 5.56224 5.05796 -5.75073 -3.55271e-015 -41.7092 -2.84217e-014 -2.71106 -1.86142 -4.47118 0 -41.5308 0 1.99424 -9.01671 21.1426 -7.10543e-015 -6.23286 14.3835 0 0 -0 -9.58901 0 0 -4.04796 1.59758 6.54378 -3.55271e-015 -41.7092 -2.84217e-014 2.59634 3.40571 -5.133 3.55271e-015 -41.5308 0 3.35879 -9.14207 -8.08141 -7.10543e-015 -6.23286 14.3835 0 0 -0 
0 0 0 0 0 -0 -15.8521 85.0564 -202.15 -0.773754 -2.02096 -0.545529 -3.55271e-015 7.86299 2.84217e-014 2.2466 -5.92695 0.769821 1.77636e-015 22.6654 -2.84217e-014 -0.264439 -0.312163 0.652759 -1.77636e-015 22.5723 2.05203 0.292003 22.5301 -0.853443 3.55271e-015 13.4246 -1.9178 2.12295 7.39235 -0.703355 3.7941 20.1358 -0.319195 6.08465 4.70106 2.68581 12.7665 -2.84217e-014 0 -12.6835 3.60514 -9.55973 28.396 0 2.84217e-014 0.368293 4.26347 -0.638818 28.7929 -1.42109e-014 0 10.0696 3.85762 -4.6391 -3.85764 20.1358 -0.319195 -5.70372 12.0208 8.34323 -12.7665 -1.42109e-014 0 12.2044 5.95094 -0.566787 -28.396 -2.84217e-014 -2.84217e-014 0.197371 1.42468 2.37489 -28.7929 1.42109e-014 2.84217e-014 -8.0042 2.13789 -10.2297 9.58901 -1.42109e-014 0 5.56221 5.05796 -5.75044 0 -41.7092 0 -2.71124 -1.8614 -4.47678 -7.10543e-015 -41.5308 0 1.98514 -9.02664 21.1432 -7.10543e-015 -6.23286 14.3835 -4.41391e-032 1.59028e-015 1.59028e-015 -9.58901 0 0 -4.04796 1.59758 6.54378 -7.10543e-015 -41.7092 0 2.59668 3.40945 -5.13302 3.55271e-015 -41.5308 0 3.35884 -9.15373 -8.08552 0 -6.23286 14.3835 -0 0 1.59028e-015 
0 0 0 0 0 -0 -15.8521 85.0564 -202.15 -0.768757 -2.02096 -0.541526 0 7.86299 -2.84217e-014 2.2666 -5.91385 0.754606 1.77636e-015 22.6654 0 -0.292706 -0.363914 0.636557 -1.77636e-015 22.5723 2.05203 0.245041 22.6129 -0.831443 1.77636e-015 13.4246 -1.9178 2.1614 7.37632 -0.67971 3.7941 20.1358 -0.319195 6.06035 4.72426 2.69652 12.7665 2.84217e-014 2.84217e-014 -12.6625 3.62302 -9.54593 28.396 2.84217e-014 0 0.368752 4.27326 -0.635415 28.7929 -2.84217e-014 0 10.0191 3.87089 -4.62273 -3.85764 20.1358 -0.319195 -5.68852 12.0487 8.40755 -12.7665 0 -2.84217e-014 12.2082 5.92478 -0.595392 -28.396 0 0 0.202482 1.42496 2.35403 -28.7929 0 0 -8.0278 2.141 -10.2412 9.58901 -1.42109e-014 0 5.56253 5.05793 -5.75404 0 -41.7092 0 -2.71203 -1.86134 -4.50109 7.10543e-015 -41.5308 2.84217e-014 1.96941 -9.01895 21.1519 0 -6.23286 14.3835 -3.97569e-016 -1.59028e-015 -0 -9.58901 -1.42109e-014 -2.84217e-014 -4.04796 1.59758 6.54378 7.10543e-015 -41.7092 0 2.59712 3.41773 -5.12815 3.55271e-015 -41.5308 0 3.29531 -9.1385 -8.05248 -7.10543e-015 -6.23286 14.3835 -9.93923e-017 -7.95139e-016 3.18055e-015 
